<svg width="464" height="120" viewBox="0 0 464 120" fill="none" xmlns="http://www.w3.org/2000/svg">
<path d="M121.164 71.9498C120.604 71.9898 120.114 71.5598 120.084 70.9998L118.204 41.6398C118.164 41.0798 118.594 40.5898 119.154 40.5598C125.064 40.1798 130.154 44.6598 130.534 50.5698L131.174 60.5798C131.554 66.4698 127.074 71.5698 121.164 71.9498Z" fill="#F37B21"/>
<path d="M121.104 72.15C120.464 72.15 119.924 71.6499 119.884 70.9999L118.004 41.6399C117.964 40.9699 118.474 40.38 119.144 40.34C125.154 39.96 130.354 44.5299 130.734 50.5399L131.374 60.55C131.564 63.46 130.604 66.2699 128.674 68.4599C126.744 70.6499 124.084 71.9599 121.174 72.1399C121.154 72.1499 121.124 72.15 121.104 72.15ZM119.854 40.7199C119.624 40.7199 119.394 40.73 119.164 40.74C118.944 40.75 118.744 40.85 118.604 41.02C118.464 41.18 118.384 41.3899 118.404 41.6099L120.284 70.9699C120.314 71.42 120.704 71.77 121.154 71.73C123.954 71.55 126.524 70.2899 128.374 68.1799C130.234 66.0699 131.154 63.37 130.974 60.56L130.334 50.55C130.154 47.75 128.894 45.18 126.784 43.33C124.854 41.64 122.414 40.7199 119.854 40.7199Z" fill="#F37B21"/>
<g opacity="0.35">
<path opacity="0.35" d="M130.874 55.8701L131.174 60.5701C131.554 66.4701 127.073 71.5701 121.163 71.9501C120.603 71.9901 120.113 71.5601 120.083 70.9901L119.583 63.1801C119.763 63.5301 120.133 63.7501 120.553 63.7301L121.253 63.6801C125.913 63.3901 129.694 60.1401 130.874 55.8701Z" fill="#371A45"/>
</g>
<path d="M22.2337 46.7401C22.7937 46.7001 23.2837 47.1301 23.3137 47.6901L25.1937 77.0501C25.2337 77.6101 24.8037 78.1001 24.2437 78.1301C18.3337 78.5101 13.2437 74.0301 12.8637 68.1201L12.2237 58.1201C11.8437 52.2101 16.3237 47.1201 22.2337 46.7401Z" fill="#F37B21"/>
<path d="M23.5436 78.3701C20.8936 78.3701 18.3536 77.4201 16.3436 75.6501C14.1536 73.7201 12.8436 71.0601 12.6636 68.1501L12.0236 58.1401C11.8336 55.2301 12.7936 52.4201 14.7236 50.2301C16.6536 48.0401 19.3136 46.7301 22.2236 46.5501C22.9036 46.5201 23.4836 47.0201 23.5236 47.6901L25.4036 77.0501C25.4236 77.3801 25.3136 77.6901 25.1036 77.9401C24.8836 78.1901 24.5936 78.3301 24.2636 78.3501C24.0136 78.3601 23.7836 78.3701 23.5436 78.3701ZM22.2436 46.9401C19.4436 47.1201 16.8736 48.3801 15.0236 50.4901C13.1636 52.6001 12.2436 55.3001 12.4236 58.1101L13.0636 68.1201C13.2436 70.9201 14.5036 73.4901 16.6136 75.3401C18.7236 77.1901 21.4336 78.1201 24.2336 77.9401C24.4536 77.9301 24.6536 77.8301 24.7936 77.6601C24.9336 77.5001 25.0136 77.2901 24.9936 77.0701L23.1136 47.7101C23.0836 47.2601 22.7036 46.9101 22.2436 46.9401Z" fill="#F37B21"/>
<g opacity="0.35">
<path opacity="0.35" d="M24.6735 68.9099L25.1935 77.0599C25.2335 77.6199 24.8035 78.1099 24.2335 78.1399C21.1335 78.3399 18.2535 77.1999 16.1635 75.2099C14.2735 73.4199 13.0335 70.9299 12.8535 68.1299L12.5835 63.9099C14.4935 67.4999 18.3935 69.8399 22.7235 69.5699L23.7935 69.4999C24.2035 69.4799 24.5235 69.2399 24.6735 68.9099Z" fill="#371A45"/>
</g>
<path d="M71.8437 111.71C100.148 111.71 123.094 88.7645 123.094 60.46C123.094 32.1554 100.148 9.20996 71.8437 9.20996C43.5392 9.20996 20.5938 32.1554 20.5938 60.46C20.5938 88.7645 43.5392 111.71 71.8437 111.71Z" fill="#F37B21"/>
<path d="M71.8539 111.91C71.7239 111.91 71.6039 111.91 71.4839 111.91C43.1139 111.71 20.1939 88.46 20.3939 60.09C20.5939 31.84 43.6439 9 71.8439 9C71.9739 9 72.0939 9 72.2139 9C85.9539 9.1 98.8439 14.54 108.494 24.33C118.144 34.12 123.404 47.08 123.304 60.82C123.094 89.07 100.054 111.91 71.8539 111.91ZM71.8339 9.41C58.3439 9.41 45.6339 14.62 36.0139 24.1C26.3039 33.67 20.9039 46.45 20.8039 60.08C20.7039 73.71 25.9239 86.57 35.4939 96.28C45.0639 105.99 57.8439 111.39 71.4739 111.49C85.0939 111.58 97.9639 106.37 107.674 96.8C117.384 87.23 122.784 74.45 122.884 60.82C122.984 47.19 117.764 34.33 108.194 24.62C98.6239 14.91 85.8439 9.51 72.2139 9.41C72.0839 9.41 71.9539 9.41 71.8339 9.41Z" fill="#F37B21"/>
<path d="M121.673 60.9901C121.753 70.8001 118.643 79.9401 113.253 87.5201C109.213 93.2001 92.5034 103.23 71.7834 103.58C52.5634 103.91 34.9934 93.8001 30.8634 88.1801C25.3534 80.6901 22.1034 71.6001 22.0234 61.7901C21.8134 35.8201 44.0334 24.8801 71.5534 24.6601C99.0734 24.4401 121.473 35.0201 121.673 60.9901Z" fill="#08171C"/>
<path d="M70.8536 104.71C51.3836 104.71 34.2036 94.6199 29.9536 88.8399C24.1036 80.8799 20.9736 71.5299 20.8936 61.7899C20.7936 49.1199 25.7936 39.2999 35.7636 32.6299C44.4736 26.7899 56.8536 23.6499 71.5536 23.5299C86.2536 23.4099 98.6736 26.3599 107.484 32.0599C117.554 38.5799 122.714 48.3099 122.814 60.9799C122.894 70.7099 119.904 80.1199 114.184 88.1699C110.214 93.7499 93.7136 104.33 71.8036 104.7C71.4836 104.71 71.1636 104.71 70.8536 104.71ZM72.3036 25.7799C72.0536 25.7799 71.8036 25.7799 71.5636 25.7799C56.9236 25.8999 22.8936 29.6399 23.1536 61.7699C23.2236 71.0299 26.2136 79.9199 31.7736 87.4999C35.6636 92.7999 52.4136 102.45 70.8736 102.45C71.1736 102.45 71.4636 102.45 71.7636 102.44C92.6036 102.09 108.714 91.9499 112.334 86.8599C117.784 79.1999 120.624 70.2499 120.544 60.9999C120.294 29.3999 87.3236 25.7799 72.3036 25.7799Z" fill="#08171C"/>
<path d="M103.113 44.44C98.6234 40.5 93.7034 40.48 88.4934 41.46C88.6234 40.98 88.7134 40.65 88.6934 40.72C85.7034 41.84 82.6234 43.12 79.4634 44.1C78.2434 44.48 76.8134 44.15 75.4734 44.16C74.7934 44.17 74.1134 44.19 73.4334 44.24C69.9434 44.49 66.4034 45.23 62.9734 44.89C59.4434 44.54 56.0234 43.16 52.5334 41.76C52.8234 42.14 53.1134 42.53 53.5734 43.12C48.2534 42.85 43.2634 43.05 39.4734 47.27C38.9134 44.59 40.1834 41.43 42.8334 39.27C48.6834 34.5 54.7834 35.36 61.0734 38.56C60.5934 38.04 60.1134 37.52 59.6334 37C59.7834 36.75 59.7734 36.77 59.9234 36.51C61.6934 37 63.5634 37.29 65.2234 38.04C69.2034 39.84 72.9034 39.55 76.6334 37.36C78.1034 36.5 79.8234 36.05 81.4234 35.42C81.5934 35.65 81.5734 35.62 81.7434 35.85L80.1334 37.93C85.7834 34.09 91.6434 32.32 98.0034 36.11C100.943 37.89 102.743 40.49 103.113 44.44Z" fill="#F37B21"/>
<path d="M82.7633 51.82L85.7333 51.6701C84.0333 50.6401 82.3633 49.63 80.8433 48.71C84.3933 49.04 87.9733 49.36 91.4433 49.68C91.4733 49.64 91.1933 50.03 90.9033 50.41C91.0633 50.64 91.3833 50.7 91.6133 50.54C93.1533 49.45 94.7033 48.35 96.1833 47.3C96.8433 49.51 96.2033 51.41 94.2133 52.72C91.2733 54.66 85.8233 54.26 82.7633 51.82Z" fill="#F37B21"/>
<path d="M46.2937 49.74C48.1237 50.81 49.8537 51.83 51.5937 52.85C51.7837 52.58 51.7437 52.21 51.5037 51.98C51.3037 51.78 51.1437 51.64 51.1237 51.61C54.4537 51.02 57.9937 50.4 61.3037 49.81C61.0037 50.09 60.3837 50.76 59.6737 51.31C58.9037 51.9 58.0537 52.39 56.7637 53.23C58.2637 53.06 59.2137 52.95 60.2237 52.83C58.0737 55.55 51.7637 56.54 48.9237 55.04C46.7837 53.89 45.8537 52.08 46.2937 49.74Z" fill="#F37B21"/>
<path d="M75.1935 81.63C75.1935 81.63 87.8735 78.67 95.2035 72.44C94.3635 70.43 92.9835 68.41 93.1535 68.92C91.5435 64.83 89.7435 63.96 88.8335 63.83C87.3235 65.49 85.9535 66.99 84.5835 68.49C84.2735 68.24 84.4035 68.34 84.0935 68.09C84.2835 67.82 84.4835 67.56 84.6735 67.29C87.9735 62.73 87.0935 57.83 82.3735 54.78C80.7635 53.74 79.1035 52.76 77.4035 51.85C75.4435 50.8 73.5335 51.52 72.6835 53.56C72.3335 54.39 72.0835 55.26 71.6335 56.56C71.1635 55.54 70.8735 54.92 70.5935 54.3C69.3535 51.56 67.4235 51.03 64.9535 52.78C63.6735 53.69 62.3835 54.58 61.1435 55.53C56.5235 59.06 55.9335 64.03 59.5835 68.59C60.0135 69.13 60.4735 69.66 60.9235 70.2C60.7435 70.4 60.7935 70.34 60.6235 70.53C59.0835 69.46 57.5535 68.38 55.9535 67.26C52.9835 71.63 51.5135 76.33 51.3535 81.37L51.7535 81.68C51.7635 81.69 63.2735 85.05 75.1935 81.63ZM82.4435 59.94C78.2035 64.87 75.8835 65.34 73.4935 61.7C76.5635 61.54 78.8935 58.58 82.4435 59.94ZM70.2435 61.86C68.3535 65.76 65.6535 65.45 61.2835 60.97C64.5635 59.24 67.1935 62 70.2435 61.86Z" fill="#F37B21"/>
<path d="M93.5036 78.78C86.4536 80.91 81.1736 81.97 76.7636 82.59C70.6336 84.02 63.7636 85.04 56.6836 85.05C56.4936 85.1 56.2936 85.14 56.0936 85.19C53.4636 85.95 54.0536 85.53 52.1636 86.6L62.8136 87.3C63.1336 87.32 63.1936 87.76 62.9036 87.87C61.2236 88.52 59.7136 89.11 58.0236 89.77C61.2036 93.4 64.6036 95.87 68.9636 96.68C74.8536 97.78 80.5136 96.76 85.8936 94.37C88.8236 93.07 92.1236 89.5 93.3336 86.54C94.9236 82.64 97.3736 77.61 93.5036 78.78Z" fill="#F37B21"/>
<path d="M199.014 64.6846C199.014 66.2797 198.807 67.7193 198.393 69.0036C197.999 70.2672 197.471 71.3858 196.808 72.3594C196.145 73.333 195.369 74.1616 194.478 74.8452C193.587 75.5287 192.665 76.088 191.712 76.523C190.76 76.958 189.786 77.2791 188.792 77.4863C187.818 77.6934 186.896 77.797 186.026 77.797H154.861V69.7183H186.026C187.58 69.7183 188.781 69.2626 189.631 68.3511C190.501 67.4397 190.936 66.2175 190.936 64.6846C190.936 63.9389 190.822 63.2553 190.594 62.6339C190.366 62.0124 190.035 61.4739 189.6 61.0181C189.185 60.5624 188.667 60.2103 188.046 59.9617C187.445 59.7131 186.772 59.5888 186.026 59.5888H167.445C166.14 59.5888 164.732 59.361 163.219 58.9053C161.707 58.4288 160.299 57.6727 158.994 56.637C157.709 55.6013 156.632 54.2445 155.762 52.5666C154.913 50.8887 154.488 48.838 154.488 46.4143C154.488 43.9907 154.913 41.9503 155.762 40.2932C156.632 38.6153 157.709 37.2585 158.994 36.2228C160.299 35.1663 161.707 34.4102 163.219 33.9545C164.732 33.4781 166.14 33.2398 167.445 33.2398H194.944V41.3185H167.445C165.912 41.3185 164.711 41.7846 163.841 42.7168C162.992 43.6489 162.567 44.8815 162.567 46.4143C162.567 47.9679 162.992 49.2005 163.841 50.1119C164.711 51.0026 165.912 51.448 167.445 51.448H186.026H186.088C186.958 51.4687 187.88 51.593 188.854 51.8209C189.827 52.028 190.791 52.3594 191.744 52.8152C192.717 53.2709 193.639 53.8509 194.509 54.5552C195.379 55.2388 196.145 56.0674 196.808 57.0409C197.492 58.0145 198.03 59.1331 198.424 60.3967C198.818 61.6603 199.014 63.0896 199.014 64.6846Z" fill="#FF810A"/>
<path d="M252.489 59.7753C252.489 62.4889 252.023 64.985 251.091 67.2636C250.159 69.5422 248.864 71.5101 247.207 73.1673C245.55 74.8244 243.582 76.1191 241.303 77.0513C239.045 77.9627 236.58 78.4184 233.908 78.4184H222.971C220.299 78.4184 217.823 77.9627 215.545 77.0513C213.266 76.1191 211.298 74.8244 209.641 73.1673C207.984 71.5101 206.679 69.5422 205.726 67.2636C204.794 64.985 204.328 62.4889 204.328 59.7753V51.2616C204.328 48.5687 204.794 46.0829 205.726 43.8043C206.679 41.505 207.984 39.5371 209.641 37.9006C211.298 36.2435 213.266 34.9488 215.545 34.0166C217.823 33.0845 220.299 32.6184 222.971 32.6184H233.908C236.58 32.6184 239.045 33.0845 241.303 34.0166C243.582 34.9488 245.55 36.2435 247.207 37.9006C248.864 39.5371 250.159 41.505 251.091 43.8043C252.023 46.0829 252.489 48.5687 252.489 51.2616V59.7753ZM244.41 51.2616C244.41 49.6665 244.151 48.2269 243.634 46.9426C243.136 45.6375 242.422 44.5293 241.49 43.6179C240.578 42.6857 239.47 41.9711 238.165 41.4739C236.881 40.956 235.462 40.6971 233.908 40.6971H222.971C221.396 40.6971 219.957 40.956 218.652 41.4739C217.367 41.9711 216.259 42.6857 215.327 43.6179C214.395 44.5293 213.67 45.6375 213.152 46.9426C212.655 48.2269 212.406 49.6665 212.406 51.2616V59.7753C212.406 61.3703 212.655 62.8203 213.152 64.1253C213.67 65.4096 214.395 66.5179 215.327 67.45C216.259 68.3615 217.367 69.0761 218.652 69.594C219.957 70.0911 221.396 70.3397 222.971 70.3397H233.846C235.42 70.3397 236.85 70.0911 238.134 69.594C239.439 69.0761 240.558 68.3615 241.49 67.45C242.422 66.5179 243.136 65.4096 243.634 64.1253C244.151 62.8203 244.41 61.3703 244.41 59.7753V51.2616Z" fill="#FF810A"/>
<path d="M301.396 77.797H264.545C263.965 77.797 263.426 77.6934 262.929 77.4863C262.432 77.2791 261.997 76.9995 261.624 76.6473C261.272 76.2745 260.992 75.8395 260.785 75.3423C260.578 74.8452 260.475 74.3066 260.475 73.7266V33.2398H268.553V69.7183H301.396V77.797Z" fill="#FF810A"/>
<path d="M351.049 77.797H342.971V66.8597H314.571V77.797H306.492V55.5184C306.492 52.2662 307.051 49.273 308.17 46.5386C309.289 43.8043 310.842 41.4532 312.831 39.4853C314.819 37.5174 317.171 35.9845 319.884 34.8867C322.598 33.7888 325.56 33.2398 328.771 33.2398H346.979C347.538 33.2398 348.066 33.3434 348.564 33.5506C349.061 33.7577 349.496 34.0477 349.869 34.4206C350.241 34.7934 350.531 35.2285 350.739 35.7256C350.946 36.2228 351.049 36.751 351.049 37.3103V77.797ZM314.571 58.781H342.971V41.3185H328.771C328.522 41.3185 327.994 41.36 327.186 41.4428C326.399 41.505 325.477 41.6811 324.421 41.9711C323.385 42.2611 322.287 42.7064 321.127 43.3071C319.967 43.9079 318.9 44.7365 317.927 45.7929C316.953 46.8493 316.145 48.1751 315.503 49.7701C314.882 51.3444 314.571 53.2605 314.571 55.5184V58.781Z" fill="#FF810A"/>
<path d="M404.866 51.883C404.866 53.7266 404.638 55.3734 404.182 56.8234C403.727 58.2735 403.105 59.5578 402.318 60.6764C401.551 61.7742 400.661 62.7167 399.646 63.5039C398.631 64.2911 397.564 64.9332 396.445 65.4304C395.347 65.9275 394.229 66.29 393.09 66.5179C391.971 66.7457 390.915 66.8597 389.92 66.8597H371.65V58.781H389.92C390.956 58.6981 391.888 58.491 392.717 58.1595C393.566 57.8074 394.291 57.3413 394.892 56.7613C395.492 56.1813 395.959 55.4873 396.29 54.6795C396.621 53.8509 396.787 52.9187 396.787 51.883V48.2165C396.684 47.2015 396.466 46.2693 396.135 45.42C395.803 44.5707 395.347 43.8457 394.767 43.245C394.208 42.6443 393.525 42.1782 392.717 41.8468C391.909 41.4946 390.977 41.3185 389.92 41.3185H371.712C370.635 41.3185 369.817 41.5982 369.257 42.1575C368.698 42.7168 368.418 43.5247 368.418 44.5811V77.797H360.34V44.5811C360.34 42.5096 360.713 40.7489 361.458 39.2989C362.225 37.8488 363.167 36.6785 364.286 35.7877C365.425 34.897 366.658 34.2549 367.983 33.8613C369.309 33.447 370.531 33.2398 371.65 33.2398H389.92C391.743 33.2398 393.38 33.4781 394.83 33.9545C396.28 34.4102 397.554 35.0317 398.651 35.8188C399.77 36.5853 400.713 37.476 401.479 38.491C402.266 39.506 402.908 40.5728 403.405 41.6914C403.923 42.7893 404.296 43.9079 404.524 45.0472C404.752 46.1658 404.866 47.2222 404.866 48.2165V51.883Z" fill="#FF810A"/>
<path d="M448.429 59.5888H422.919V51.448H448.429V59.5888ZM452.064 77.797H422.919C421.8 77.797 420.578 77.6002 419.252 77.2066C417.926 76.813 416.694 76.1709 415.555 75.2802C414.436 74.3687 413.493 73.1983 412.727 71.769C411.981 70.319 411.608 68.5479 411.608 66.4557V37.3103C411.608 36.751 411.712 36.2228 411.919 35.7256C412.126 35.2285 412.406 34.7934 412.758 34.4206C413.131 34.0477 413.566 33.7577 414.063 33.5506C414.56 33.3434 415.099 33.2398 415.679 33.2398H452.064V41.3185H419.687V66.4557C419.687 67.5122 419.967 68.32 420.526 68.8793C421.085 69.4386 421.904 69.7183 422.981 69.7183H452.064V77.797Z" fill="#FF810A"/>
</svg>
